<?xml version="1.0" standalone="no"?>
<!DOCTYPE svg PUBLIC "-//W3C//DTD SVG 20010904//EN"
 "http://www.w3.org/TR/2001/REC-SVG-20010904/DTD/svg10.dtd">
<svg version="1.0" xmlns="http://www.w3.org/2000/svg"
 width="1264.000000pt" height="411.000000pt" viewBox="0 0 1264.000000 411.000000"
 preserveAspectRatio="xMidYMid meet">

<g transform="translate(0.000000,411.000000) scale(0.100000,-0.100000)"
fill="#000000" stroke="none">
<path d="M0 2055 l0 -2055 6320 0 6320 0 0 2055 0 2055 -6320 0 -6320 0 0
-2055z m1604 1970 l26 -24 0 -293 c-1 -308 -1 -312 -47 -336 -34 -18 -58 -14
-87 14 l-26 27 0 208 c0 133 4 209 10 209 6 0 10 38 10 95 0 93 0 95 28 109
38 21 55 20 86 -9z m775 -411 c37 -47 28 -71 -76 -215 -53 -74 -121 -169 -150
-211 -75 -108 -110 -128 -161 -92 -18 12 -22 25 -22 65 0 27 5 49 10 49 6 0
15 11 20 25 5 14 14 25 20 25 5 0 10 5 10 11 0 6 13 28 28 48 16 20 32 44 35
54 4 9 11 17 17 17 5 0 10 9 10 20 0 11 7 20 15 20 8 0 15 9 15 19 0 10 7 21
15 25 8 3 15 12 15 21 0 8 5 15 10 15 6 0 15 10 21 23 33 74 69 107 115 107
23 0 38 -7 53 -26z m-1564 4 c26 -11 270 -339 308 -413 16 -29 17 -40 7 -70
-27 -81 -112 -74 -167 13 -10 15 -37 53 -60 84 -24 31 -43 61 -43 67 0 6 -3
11 -7 11 -5 0 -19 17 -33 38 -14 20 -28 42 -33 47 -82 107 -90 125 -81 172 5
27 14 38 38 49 39 17 39 17 71 2z m711 -617 c173 -115 266 -239 308 -412 24
-97 21 -299 -5 -435 -39 -198 -88 -313 -225 -530 -141 -224 -216 -392 -243
-548 -23 -129 -9 -321 35 -463 8 -29 14 -62 12 -74 -3 -19 -23 -3 -134 107
-144 142 -234 241 -234 260 0 6 -7 14 -15 18 -8 3 -15 12 -15 21 0 8 -4 15 -8
15 -21 0 -112 196 -112 241 0 14 -6 31 -12 37 -17 17 -18 279 -2 290 6 4 13
34 16 66 3 33 10 62 16 64 7 2 12 16 12 32 0 16 7 35 15 44 8 8 15 24 15 36 0
11 7 23 15 26 8 4 15 15 15 25 0 11 7 22 15 25 8 4 15 15 15 25 0 11 7 22 15
25 8 4 15 15 15 25 0 11 7 22 15 25 8 4 15 13 15 20 0 8 7 17 15 20 8 4 15 13
15 20 0 8 7 17 15 20 8 4 15 13 15 20 0 8 7 17 15 20 8 4 15 11 15 18 0 6 14
24 30 40 17 16 30 35 30 43 0 7 7 16 15 19 8 4 15 13 15 20 0 8 7 17 15 20 8
4 15 15 15 25 0 11 7 22 15 25 8 4 15 14 15 24 0 10 7 23 15 30 8 7 15 21 15
31 0 9 6 24 13 31 8 7 16 31 20 52 3 22 10 42 15 45 5 3 12 32 16 65 3 32 11
66 16 76 11 21 14 243 3 254 -8 8 -42 134 -43 159 0 34 53 19 146 -42z m-726
-143 c22 -24 26 -75 7 -98 -7 -8 -49 -46 -94 -83 -281 -233 -446 -524 -489
-867 -18 -145 -18 -210 1 -346 27 -194 65 -317 147 -475 180 -347 518 -601
910 -685 108 -23 301 -29 421 -14 203 25 525 154 642 258 14 12 30 22 35 22 6
0 10 5 10 10 0 6 5 10 10 10 13 0 50 37 50 50 0 6 5 10 10 10 13 0 50 37 50
50 0 6 7 10 15 10 8 0 15 6 15 13 0 7 13 24 30 37 16 14 29 31 30 38 0 6 7 12
15 12 8 0 15 9 15 20 0 11 7 20 15 20 8 0 15 9 15 20 0 11 7 23 15 26 8 4 15
17 15 30 0 15 6 24 15 24 9 0 15 9 15 25 0 14 7 28 15 31 8 4 15 17 15 30 0
14 7 27 15 30 8 4 15 17 15 30 0 14 7 27 15 30 10 4 15 20 15 50 0 26 5 46 14
51 8 5 15 34 19 78 3 38 10 71 16 73 15 5 15 499 0 504 -5 2 -13 24 -16 48 -2
25 -11 59 -19 77 -8 17 -14 43 -14 58 0 14 -7 33 -15 41 -8 9 -15 24 -15 35 0
11 -7 27 -15 35 -8 9 -15 24 -15 35 0 10 -4 19 -9 19 -5 0 -14 12 -20 28 -11
28 -29 58 -46 77 -5 6 -19 29 -30 50 -11 21 -27 46 -35 55 -29 32 -124 141
-130 148 -3 4 -32 30 -65 57 -112 92 -135 117 -135 148 0 20 9 38 27 54 60 51
84 43 220 -76 444 -389 620 -978 467 -1560 -140 -534 -548 -943 -1074 -1077
-142 -36 -263 -47 -444 -41 -226 8 -363 41 -581 141 -227 105 -473 328 -612
556 -48 78 -113 211 -113 231 0 8 -7 23 -15 33 -8 11 -15 32 -15 47 0 15 -5
29 -11 31 -6 2 -14 28 -17 58 -2 30 -9 58 -14 61 -9 6 -13 27 -39 189 -15 91
-8 412 9 418 8 2 12 24 12 62 0 39 5 64 15 74 8 8 15 32 15 56 0 27 5 43 15
46 10 4 15 20 15 45 0 26 5 42 15 45 8 4 15 18 15 34 0 16 7 35 15 44 8 8 15
21 15 29 0 8 7 20 15 27 8 7 15 19 15 27 0 7 7 16 15 19 8 4 15 15 15 25 0 11
7 22 15 25 8 4 15 17 15 30 0 15 6 24 15 24 8 0 15 9 15 20 0 11 7 20 15 20 8
0 15 4 15 10 0 5 13 23 30 40 16 17 30 35 30 41 0 5 7 12 15 15 8 4 15 12 15
20 0 8 7 14 15 14 8 0 15 6 15 13 0 12 34 47 45 47 9 0 45 40 45 50 0 6 7 10
15 10 8 0 15 5 15 10 0 6 7 10 15 10 8 0 15 4 15 9 0 5 8 11 18 15 9 3 35 19
57 36 48 35 77 38 105 8z m3234 -514 c14 -5 16 -57 16 -479 l0 -473 53 -9 c28
-5 70 -5 92 -1 22 4 95 7 162 8 l122 0 3 -120 3 -120 -342 0 -343 0 0 589 0
589 38 10 c42 11 172 15 196 6z m931 -16 c3 -13 6 -207 7 -433 l3 -410 24 -41
c32 -57 59 -69 155 -69 83 0 146 17 146 40 0 7 6 15 13 18 10 4 19 53 32 158
14 123 17 212 14 441 -5 343 -16 317 133 318 94 0 98 -1 103 -23 4 -13 5 -223
3 -467 -3 -434 -4 -446 -26 -501 -44 -110 -101 -162 -228 -205 -102 -35 -205
-41 -309 -20 -198 40 -305 144 -305 296 0 33 -5 69 -12 79 -9 15 -8 46 2 136
10 87 11 138 3 203 -5 48 -8 132 -6 187 5 157 5 168 -2 202 -9 39 11 88 40
102 11 5 62 10 112 10 88 1 93 0 98 -21z m1300 -1 c8 -12 34 -79 59 -147 135
-379 158 -444 176 -486 l20 -46 20 25 c11 14 20 30 20 36 0 7 7 14 15 17 9 4
15 19 15 40 0 22 6 37 15 40 10 4 15 20 15 49 0 25 6 50 15 59 8 8 15 26 15
40 0 13 7 31 15 40 8 8 15 26 15 40 0 13 7 31 15 40 8 8 15 26 15 39 0 14 7
30 15 37 8 7 15 26 15 42 0 16 6 31 15 34 10 4 15 20 15 44 0 33 5 41 34 59
30 19 49 21 174 21 139 0 142 0 146 -22 3 -13 7 -158 10 -323 3 -165 9 -425
13 -577 l6 -278 -131 0 -131 0 -6 328 c-7 425 -9 461 -17 455 -5 -2 -8 -10 -8
-16 0 -7 -46 -129 -101 -272 -55 -143 -110 -286 -122 -317 l-21 -58 -87 0
c-59 0 -90 4 -96 13 -12 18 -74 178 -80 207 -3 14 -12 34 -19 45 -8 11 -14 29
-14 40 0 12 -4 25 -9 31 -9 8 -93 205 -129 304 -16 44 -17 32 -20 -357 l-2
-403 -131 0 -131 0 8 503 c5 276 8 530 6 564 -1 34 2 64 8 68 5 3 10 13 10 22
0 35 31 42 177 43 138 0 143 -1 158 -23z m1418 16 c3 -5 8 -275 12 -601 l8
-593 -129 3 -129 3 -1 579 0 578 30 19 c24 15 51 19 118 19 48 0 89 -3 91 -7z
m558 -4 c11 -5 89 -114 173 -242 177 -269 264 -400 288 -436 17 -25 18 -16 19
244 0 149 0 302 -1 342 l-1 72 37 16 c38 16 179 21 200 7 8 -5 13 -127 18
-397 3 -214 9 -481 12 -592 l7 -203 -122 0 -121 0 -180 273 c-99 149 -200 301
-225 337 -25 36 -51 73 -58 83 -9 14 -12 -59 -10 -338 l3 -356 -133 3 -132 3
-3 578 -2 579 22 18 c18 16 40 19 106 20 46 0 92 -5 103 -11z m1626 5 c15 -4
27 -20 37 -48 25 -70 376 -1141 376 -1146 0 -10 -245 1 -257 12 -7 6 -13 21
-13 33 0 13 -7 36 -15 51 -8 16 -15 44 -15 62 0 17 -4 32 -9 32 -5 0 -14 14
-20 30 l-10 30 -207 -2 -208 -3 -33 -105 c-18 -58 -33 -113 -33 -122 0 -16
-13 -18 -124 -18 -101 0 -125 3 -130 15 -6 18 2 45 15 45 5 0 9 14 9 30 0 18
6 33 15 36 10 4 15 20 15 50 0 30 5 46 15 50 10 4 15 20 15 45 0 21 6 41 14
46 7 4 16 30 19 58 3 27 10 51 16 53 6 2 11 17 11 33 0 17 6 32 15 35 9 4 15
19 15 40 0 18 6 37 14 41 7 5 16 32 18 63 3 30 11 56 17 58 6 2 11 16 11 32 0
16 7 35 15 44 8 8 15 26 15 41 0 14 7 28 15 31 10 4 15 20 15 49 0 29 5 45 15
49 10 3 15 19 15 45 0 22 7 46 15 55 8 8 15 27 15 43 0 47 10 67 43 91 28 19
44 22 137 22 58 0 115 -3 127 -6z m1162 -4 c201 -33 308 -200 279 -438 -15
-128 -62 -215 -151 -278 l-28 -19 50 -97 c53 -103 115 -220 163 -306 l30 -53
-142 3 -142 3 -40 75 c-22 41 -54 100 -72 130 -18 30 -41 73 -52 95 -10 22
-27 48 -36 59 -10 11 -18 23 -18 28 0 4 -27 8 -60 8 -55 0 -60 -2 -61 -22 -1
-13 0 -103 1 -200 l2 -178 -126 0 c-69 0 -126 1 -127 3 0 1 -3 264 -5 584 l-5
582 28 15 c22 12 70 15 238 16 116 0 239 -5 274 -10z m1159 -2 c5 -7 40 -105
77 -218 37 -113 123 -373 191 -578 68 -205 124 -377 124 -383 0 -5 -53 -9
-124 -9 l-123 0 -22 63 c-11 35 -21 75 -21 90 0 15 -4 27 -8 27 -4 0 -14 16
-21 35 l-12 35 -212 -2 -211 -3 -36 -122 -35 -123 -122 0 -123 0 0 29 c0 16 7
36 15 45 8 8 15 30 15 50 0 19 7 41 15 50 8 8 15 29 15 46 0 18 6 33 15 36 9
4 15 19 15 39 0 19 7 40 15 49 8 8 15 28 15 44 0 16 7 35 15 42 8 7 15 27 15
45 0 18 7 38 15 45 9 7 15 29 15 51 0 20 7 44 15 53 8 8 15 28 15 43 0 16 7
38 15 49 8 10 15 32 15 47 0 15 7 30 15 33 10 4 15 20 15 44 0 21 7 45 15 54
8 8 15 28 15 45 0 16 7 36 15 45 8 8 15 30 15 48 0 19 7 43 15 54 8 10 15 31
15 46 0 19 9 32 33 46 27 17 50 20 153 21 86 1 125 -3 132 -11z m-10118 -249
c52 -66 119 -188 149 -273 53 -151 49 -389 -10 -568 -51 -157 -86 -215 -269
-443 -53 -66 -132 -167 -175 -225 -43 -58 -83 -105 -89 -105 -6 0 -29 35 -51
79 l-40 79 0 155 c0 115 3 156 13 159 7 3 12 22 12 48 0 24 6 50 13 57 8 7 16
33 20 58 3 24 11 46 16 48 6 2 11 10 11 18 0 19 40 94 51 94 5 0 9 9 9 20 0
11 7 20 15 20 9 0 15 9 15 25 0 14 7 28 15 31 8 4 15 14 15 23 0 9 5 22 11 28
13 13 33 47 48 81 6 12 15 22 21 22 5 0 10 11 10 25 0 14 7 28 15 31 9 4 15
19 15 35 0 17 6 32 15 35 9 4 15 19 15 35 0 17 6 32 15 35 10 4 15 20 15 49 0
27 6 47 16 56 13 11 15 36 12 171 -4 184 -1 187 72 97z"/>
<path d="M9702 1988 c-89 -287 -100 -333 -89 -340 7 -4 68 -8 136 -8 l123 0
-6 45 c-4 25 -14 57 -22 73 -7 15 -14 41 -14 57 0 17 -7 39 -15 49 -8 11 -15
37 -15 57 0 21 -4 39 -10 41 -5 2 -20 31 -33 66 l-23 63 -32 -103z"/>
<path d="M10742 1961 c2 -88 7 -163 11 -167 4 -5 39 -10 77 -12 101 -6 164 18
218 82 7 9 12 45 12 93 -1 65 -4 82 -23 105 -36 44 -84 58 -197 58 l-101 0 3
-159z"/>
<path d="M11991 1947 c-24 -78 -53 -176 -66 -217 l-23 -75 36 -10 c20 -6 83
-9 138 -7 l101 3 -5 47 c-3 26 -11 53 -19 60 -7 7 -13 22 -13 33 0 11 -4 27
-10 37 -5 9 -28 73 -51 142 -23 69 -42 126 -43 127 -1 1 -21 -62 -45 -140z"/>
</g>
</svg>
